<svg width="409" height="199" viewBox="0 0 409 199" fill="none" xmlns="http://www.w3.org/2000/svg">
<path fill-rule="evenodd" clip-rule="evenodd" d="M222.965 78.9036H222.927C221.563 82.7617 220.39 86.681 219.414 90.655C218.994 91.8412 218.559 93.0223 218.108 94.1983C218.559 93.0224 218.994 91.8413 219.414 90.6552C217.127 99.9736 215.93 109.593 215.93 119.429C215.93 132.325 217.988 144.846 221.861 156.807H191.12C189.87 152.319 188.841 147.767 188.042 143.159C186.695 135.398 186 127.477 186 119.429C186 107.75 187.464 96.3372 190.258 85.295L190.258 85.2946C190.801 83.15 191.393 81.0194 192.035 78.9036L192.073 78.9036C193.437 75.0455 194.61 71.1262 195.586 67.1524C197.873 57.8338 199.07 48.2146 199.07 38.378C199.07 25.4825 197.013 12.9607 193.139 1H223.88C225.13 5.48805 226.159 10.0399 226.958 14.6484C228.305 22.4091 229 30.3304 229 38.378C229 50.0569 227.536 61.47 224.742 72.5124C224.199 74.657 223.607 76.7877 222.965 78.9036Z" fill="#134E4A"/>
<path fill-rule="evenodd" clip-rule="evenodd" d="M190.677 156C191.636 168.622 195.38 178.595 201.909 185.92C209.749 194.32 221.229 198.52 236.349 198.52C251.469 198.52 262.856 194.32 270.509 185.92C277.197 178.595 281.032 168.622 282.015 156H252.883C252.333 160.575 250.928 163.922 248.669 166.04C245.869 168.84 242.042 170.24 237.189 170.24C232.336 170.24 228.416 168.84 225.429 166.04C223.311 163.922 221.994 160.575 221.478 156H190.677ZM71.2561 87.08H31.4961V28H82.1761V-1.52588e-05H0.696106V196H31.4961V115.08H71.2561V87.08ZM127.746 -1.52588e-05H96.9461V196H178.426V168H127.746V-1.52588e-05ZM373.951 95.2L406.151 -1.52588e-05H377.591L353.791 72.24L330.551 -1.52588e-05H298.631L330.831 95.2L296.391 196H325.231L350.711 118.44L375.911 196H408.391L373.951 95.2Z" fill="#134E4A"/>
<path fill-rule="evenodd" clip-rule="evenodd" d="M282.713 78.9036H282.677C281.397 82.7617 280.295 86.6809 279.379 90.6549L279.379 90.6551C277.231 99.9736 276.107 109.593 276.107 119.429C276.107 132.325 278.039 144.846 281.676 156.807H252.808C251.634 152.319 250.668 147.767 249.917 143.159C248.653 135.398 248 127.477 248 119.429C248 107.75 249.375 96.3371 251.999 85.2949C252.716 83.1826 253.38 81.0518 253.99 78.9036H253.99C253.38 81.0515 252.716 83.1819 251.999 85.2938C252.508 83.1495 253.065 81.0191 253.668 78.9036L253.703 78.9036C254.984 75.0453 256.086 71.126 257.002 67.152L257.002 67.1518C259.15 57.8334 260.274 48.2144 260.274 38.378C260.274 25.4825 258.342 12.9607 254.704 1H283.573C284.746 5.48804 285.713 10.0399 286.463 14.6484L286.463 14.6484C287.728 22.4092 288.381 30.3305 288.381 38.378C288.381 50.0568 287.005 61.4698 284.382 72.512L284.382 72.5122C283.872 74.6569 283.316 76.7876 282.713 78.9036ZM282.391 78.9036L282.391 78.9036C282.619 78.0995 282.855 77.2979 283.098 76.4988C282.855 77.2979 282.619 78.0995 282.391 78.9036Z" fill="#134E4A"/>
</svg>
