<svg width="116" height="108" viewBox="0 0 116 108" fill="none" xmlns="http://www.w3.org/2000/svg">
<path fill-rule="evenodd" clip-rule="evenodd" d="M116 1.74775C116 15.5996 104.771 26.8288 90.9189 26.8288H90.0202C90.0135 26.8288 90.0067 26.8288 90 26.8288H26C11.6406 26.8288 0 38.4694 0 52.8288V55.1712C0 69.5306 11.6406 81.1712 26 81.1712L41.8018 81.1712L90 81.1712L90.909 81.1712H90.919C104.755 81.1712 115.974 92.3742 116 106.204V55.1711V52.8288V1.74775ZM116 1.74775V0.702698H115.979C115.993 1.04928 116 1.39768 116 1.74775ZM116 107.297H115.979C115.992 106.967 115.999 106.634 116 106.301V107.297Z" fill="#45D3C9"/>
</svg>
