<svg width="815" height="832" viewBox="0 0 815 832" fill="none" xmlns="http://www.w3.org/2000/svg">
<path fill-rule="evenodd" clip-rule="evenodd" d="M89.5002 42C150.3 22.8 142.833 5.33333 131.5 -1L814.5 0V831.5H175.5C178.667 830.667 184.8 828.3 184 825.5C183.739 824.588 178.524 825.203 171.006 826.091C149.668 828.608 109.782 833.314 112 811.5C113.557 796.19 128.312 797.041 143.334 797.907C157.258 798.709 171.411 799.525 175.5 787.5C180.25 773.53 165.327 768.772 145.913 762.581C130.585 757.693 112.457 751.912 99.0001 740C79.9501 723.136 88.9884 714.464 100.409 703.508C107.272 696.922 114.997 689.511 118 679C122.478 663.327 98.9135 651.57 71.0709 637.679C49.1729 626.754 24.6288 614.509 9.00009 598C-26.4999 560.5 60.5001 517 99.0001 511C124.724 506.991 122.993 492.268 120.055 467.279C118.596 454.867 116.839 439.923 118 422.5C119.816 395.263 106.963 389.289 91.938 382.306C78.0026 375.829 62.1993 368.485 54.5001 342.5C46.0559 314.001 55.0201 303.467 64.7081 292.083C73.3769 281.896 82.6252 271.029 80.5001 246C77.7249 213.314 64.3005 204.019 53.8309 196.77C47.3239 192.264 41.9583 188.549 41.0001 180.5C39.7264 169.801 48.8358 165.461 59.8642 160.207C70.4819 155.149 82.8782 149.244 89.5002 136C99.1481 116.704 82.2378 109.922 61.0343 101.417L61.0341 101.417C52.5682 98.021 43.4178 94.3508 35.0002 89.5C5.50021 72.5 13.5002 66 89.5002 42ZM73 416C73 423.732 66.732 430 59 430C51.268 430 45 423.732 45 416C45 408.268 51.268 402 59 402C66.732 402 73 408.268 73 416ZM114.5 101C126.926 101 137 90.2548 137 77C137 63.7452 126.926 53 114.5 53C102.074 53 92 63.7452 92 77C92 90.2548 102.074 101 114.5 101Z" fill="#45D3C9"/>
</svg>
