<svg width="679" height="833" viewBox="0 0 679 833" fill="none" xmlns="http://www.w3.org/2000/svg">
<path fill-rule="evenodd" clip-rule="evenodd" d="M94.8626 0C97.993 2.33333 102.376 7.9 94.8626 11.5C85.4713 16 76.5496 55.5 82.6539 63.5C85.4884 67.2146 94.7008 65.7548 104.979 64.1261C116.837 62.2471 130.114 60.1433 136.654 65.5C148.862 75.5 162.01 90 149.802 104.5C145.959 109.064 127.463 112.389 104.93 116.441C55.8699 125.262 -12.3306 137.524 9.87159 173.5C28.3431 203.431 71.234 206.384 103.131 208.581C127.182 210.237 144.983 211.463 141.35 223.5C137.755 235.408 120.403 244.964 102.223 254.977C77.6534 268.508 51.571 282.873 55.8889 305C59.1273 321.595 63.2381 320.54 68.4092 319.212C75.2351 317.46 83.9087 315.233 94.8626 352.5C104.555 385.475 81.8765 389.177 62.6558 392.314C43.6975 395.409 28.1032 397.954 50.2542 427.5C75.2994 460.906 92.9439 457.746 104.767 455.629C114.001 453.975 119.684 452.958 122.567 470.5C125.685 489.473 109.894 496.634 94.7343 503.509C77.933 511.128 61.9081 518.396 73.2628 541C83.0924 560.568 61.3175 571.646 39.0044 582.997C12.286 596.589 -15.2041 610.574 9.87169 640C34.5836 668.999 62.681 661.373 84.7829 655.374C103.838 650.202 118.436 646.24 122.567 668C127.122 691.999 99.4798 701.136 76.5213 708.725C54.517 715.999 36.8157 721.85 55.8889 738C72.8623 752.372 103.373 761.054 126.515 767.638L126.515 767.639C156.511 776.174 174.126 781.186 133.836 790.5C76.7375 803.7 102.532 824.333 122.567 833H198.167V832H679V0H198.167H190.654H94.8626ZM77.9584 159C77.9584 166.732 72.0719 173 64.8106 173C57.5492 173 51.6628 166.732 51.6628 159C51.6628 151.268 57.5492 145 64.8106 145C72.0719 145 77.9584 151.268 77.9584 159ZM13.1586 688C20.4199 688 26.3064 681.732 26.3064 674C26.3064 666.268 20.4199 660 13.1586 660C5.8973 660 0.0108392 666.268 0.0108392 674C0.0108392 681.732 5.8973 688 13.1586 688Z" fill="#242424"/>
</svg>
