<svg width="437" height="414" viewBox="0 0 437 414" fill="none" xmlns="http://www.w3.org/2000/svg">
<path d="M227.232 323.734L226.528 322.466L230.333 320.367L231.038 321.636L227.232 323.734ZM234.859 319.537L234.155 318.269L237.96 316.17L238.665 317.439L234.859 319.537ZM242.486 315.34L241.781 314.071L245.587 311.973L246.292 313.241L242.486 315.34ZM250.113 311.143L249.408 309.874L253.214 307.776L253.919 309.044L250.113 311.143ZM257.74 306.946L257.035 305.677L260.841 303.579L261.546 304.847L257.74 306.946ZM265.367 302.749L264.662 301.48L268.468 299.381L269.173 300.65L265.367 302.749ZM272.994 298.551L272.289 297.283L276.095 295.184L276.799 296.453L272.994 298.551ZM280.621 294.354L279.916 293.086L283.722 290.987L284.426 292.256L280.621 294.354ZM288.248 290.157L287.543 288.889L291.348 286.79L292.053 288.059L288.248 290.157ZM295.875 285.96L295.17 284.691L298.975 282.593L299.68 283.861L295.875 285.96ZM303.501 281.763L302.797 280.494L306.602 278.396L307.307 279.664L303.501 281.763ZM311.128 277.566L310.424 276.297L314.229 274.199L314.934 275.467L311.128 277.566ZM318.755 273.181L317.863 272.037C318.943 271.192 319.851 270.174 320.556 268.999L321.793 269.751C320.995 271.082 319.977 272.225 318.74 273.181H318.755ZM323.407 265.444L321.981 265.193C322.091 264.536 322.154 263.878 322.154 263.205C322.154 262.531 322.091 261.811 321.966 261.122L323.391 260.855C323.532 261.623 323.61 262.421 323.61 263.205C323.61 263.988 323.547 264.708 323.422 265.444H323.407ZM320.509 257.332C319.805 256.173 318.881 255.155 317.784 254.325L318.661 253.166C319.898 254.105 320.948 255.264 321.746 256.564L320.509 257.316V257.332ZM314.135 252.117L310.361 249.955L311.081 248.702L314.856 250.864L314.135 252.117ZM306.587 247.794L302.812 245.633L303.533 244.38L307.307 246.541L306.587 247.794ZM299.038 243.456L295.264 241.295L295.984 240.042L299.758 242.203L299.038 243.456ZM291.489 239.118L287.715 236.957L288.436 235.704L292.21 237.865L291.489 239.118ZM283.941 234.795L280.167 232.634L280.887 231.381L284.661 233.543L283.941 234.795ZM276.392 230.457L272.618 228.296L273.338 227.043L277.113 229.204L276.392 230.457ZM268.844 226.135L265.069 223.974L265.79 222.721L269.564 224.882L268.844 226.135ZM261.295 221.797L257.521 219.636L258.241 218.383L262.015 220.544L261.295 221.797ZM253.746 217.459L249.972 215.298L250.693 214.045L254.467 216.206L253.746 217.459ZM246.198 213.136L242.424 210.975L243.144 209.722L246.918 211.883L246.198 213.136ZM238.649 208.798L234.875 206.637L235.595 205.384L239.37 207.545L238.649 208.798ZM231.101 204.46L227.326 202.299L228.047 201.046L231.821 203.207L231.101 204.46ZM223.552 200.122L219.778 197.961L220.498 196.708L224.272 198.869L223.552 200.122ZM216.003 195.784L212.229 193.623L212.95 192.37L216.724 194.531L216.003 195.784ZM208.455 191.446L204.681 189.285L205.401 188.032L209.175 190.193L208.455 191.446ZM200.906 187.108L197.132 184.947L197.852 183.694L201.627 185.855L200.906 187.108ZM193.358 182.77L189.583 180.608L190.304 179.356L194.078 181.517L193.358 182.77ZM185.809 178.432L182.035 176.27L182.755 175.017L186.529 177.179L185.809 178.432ZM178.26 174.093L177.289 173.545C176.287 172.966 175.363 172.277 174.564 171.462L175.598 170.444C176.303 171.149 177.117 171.776 178.01 172.292L178.981 172.841L178.26 174.093ZM171.996 167.657C171.385 166.247 171.025 164.744 170.947 163.193L172.388 163.115C172.45 164.493 172.763 165.824 173.312 167.077L171.98 167.657H171.996ZM172.92 159.09L171.542 158.652C172.012 157.164 172.748 155.801 173.719 154.611L174.846 155.52C173.985 156.584 173.343 157.79 172.92 159.09ZM178.01 152.841L177.571 152.262L177.211 151.636L180.97 149.474L181.69 150.727L177.994 152.857L178.01 152.841ZM185.48 148.55L184.76 147.297L188.534 145.136L189.254 146.389L185.48 148.55ZM193.029 144.212L192.308 142.959L196.083 140.798L196.803 142.051L193.029 144.212ZM200.577 139.874L199.857 138.621L203.631 136.46L204.352 137.713L200.577 139.874ZM208.126 135.536L207.406 134.283L211.18 132.122L211.9 133.375L208.126 135.536ZM215.675 131.198L214.954 129.945L218.728 127.784L219.449 129.037L215.675 131.198ZM223.223 126.86L222.503 125.607L226.277 123.446L226.997 124.699L223.223 126.86ZM230.772 122.522L230.051 121.269L233.826 119.108L234.546 120.361L230.772 122.522ZM238.32 118.184L237.6 116.931L241.374 114.77L242.095 116.022L238.32 118.184ZM245.869 113.846L245.149 112.593L248.923 110.432L249.643 111.684L245.869 113.846ZM253.418 109.508L252.697 108.255L256.471 106.093L257.192 107.346L253.418 109.508ZM260.966 105.169L260.246 103.917L264.02 101.755L264.74 103.008L260.966 105.169ZM268.515 100.831L267.794 99.5785L271.569 97.4172L272.289 98.6701L268.515 100.831Z" fill="#45D3C9"/>
<path d="M3.56191 300.478C4.87743 302.451 6.96034 304.346 9.81064 305.99L187.359 408.46C196.959 414.004 211.493 414.599 219.809 409.807L297.55 364.907C301.058 362.871 302.89 360.209 303.125 357.374C304.002 352.707 302.656 347.351 302.656 347.351L297.487 347.649C296.783 347.147 296.047 346.646 295.217 346.161L117.668 243.691C108.068 238.147 93.5343 237.552 85.2183 242.344L7.47715 287.244L1.57296 286.931C1.57296 286.931 -0.682224 293.336 3.2017 299.898C3.21736 299.929 3.24869 299.961 3.26435 299.992C3.34265 300.133 3.43662 300.274 3.53058 300.399C3.53058 300.399 3.54624 300.431 3.56191 300.446V300.478Z" fill="#242424"/>
<path d="M205.714 413.942C199.168 413.942 192.277 412.36 186.905 409.259L9.35659 306.773C6.47497 305.113 4.28243 303.171 2.8103 300.979L2.70067 300.822C2.62237 300.713 2.54406 300.603 2.48142 300.478C-1.65309 293.509 0.602098 286.915 0.711725 286.633L0.930979 285.991L7.24236 286.32L84.7486 241.545C93.2995 236.612 108.256 237.207 118.107 242.892L295.655 345.362C296.329 345.754 296.986 346.176 297.722 346.709L303.345 346.396L303.533 347.116C303.595 347.351 304.911 352.723 304.018 357.515V357.593C303.674 360.788 301.606 363.576 298.004 365.659L220.263 410.559C216.379 412.798 211.164 413.91 205.714 413.91V413.942ZM4.28243 299.961H4.29809C5.59795 301.934 7.60256 303.704 10.2493 305.223L187.798 407.693C197.148 413.08 211.289 413.691 219.355 409.04L297.096 364.14C300.228 362.323 301.998 359.974 302.217 357.311L302.311 356.795C302.828 353.474 302.248 349.825 301.935 348.306L298.161 348.526L297.973 349.136L296.939 348.4C296.141 347.821 295.452 347.367 294.747 346.96L117.198 244.49C107.864 239.102 93.7067 238.491 85.6413 243.143L7.66521 288.184L2.21518 287.902C1.80799 289.625 1.02494 294.527 3.95355 299.475C4.06318 299.663 4.12582 299.742 4.18847 299.836L3.5307 300.478L4.26677 299.961H4.28243Z" fill="#242424"/>
<path d="M7.14872 279.461L84.8899 234.56C93.2059 229.753 107.739 230.363 117.339 235.907L294.888 338.377C304.488 343.921 305.538 352.315 297.222 357.108L219.48 402.008C211.164 406.816 196.631 406.205 187.031 400.661L9.48221 298.207C-0.117976 292.663 -1.16726 284.268 7.14872 279.476V279.461Z" fill="white"/>
<path d="M205.385 406.142C198.839 406.142 191.948 404.561 186.577 401.46L9.02784 298.974C3.68744 295.889 0.633545 291.739 0.633545 287.589C0.633545 284.096 2.7791 280.933 6.69435 278.677L84.4355 233.777C92.9864 228.844 107.958 229.439 117.793 235.124L295.342 337.594C300.683 340.679 303.736 344.814 303.736 348.964C303.736 352.456 301.575 355.62 297.676 357.875L219.934 402.775C216.05 405.015 210.835 406.127 205.385 406.127V406.142ZM98.9846 232.211C93.8634 232.211 88.9772 233.245 85.3439 235.344L7.60269 280.244C4.26689 282.17 2.43456 284.785 2.43456 287.604C2.43456 291.097 5.15957 294.667 9.93617 297.424L187.485 399.894C196.819 405.281 210.976 405.892 219.042 401.24L296.783 356.34C300.119 354.414 301.951 351.799 301.951 348.98C301.951 345.487 299.21 341.917 294.449 339.16L116.901 236.69C111.78 233.73 105.218 232.211 99.0002 232.211H98.9846Z" fill="#242424"/>
<path d="M85.6729 240.637L79.9253 243.973C78.0617 245.053 78.0617 246.808 79.9253 247.888C81.789 248.953 81.789 250.723 79.9253 251.803L36.6853 276.877C34.8217 277.957 31.7834 277.957 29.9041 276.877C28.0405 275.812 24.9866 275.812 23.1229 276.877L11.017 283.893C6.83549 286.32 6.83549 290.267 11.017 292.679L190.696 395.994C198.401 400.426 210.977 400.395 218.666 395.947L293.306 352.676C297.488 350.248 297.488 346.302 293.306 343.89L113.628 240.574C105.923 236.142 93.3468 236.174 85.6573 240.621L85.6729 240.637Z" fill="#45D3C9"/>
<path d="M204.649 400.207C199.45 400.207 194.234 399.064 190.272 396.793L10.6094 293.462C8.29153 292.131 7.00732 290.298 7.00732 288.294C7.00732 286.289 8.27587 284.457 10.5937 283.11L22.6996 276.094C24.8452 274.841 28.228 274.841 30.3735 276.094C31.9709 277.018 34.649 277.002 36.2464 276.094L79.4864 251.02C80.0815 250.676 80.4261 250.237 80.4261 249.846C80.4261 249.454 80.0815 249.016 79.4707 248.671C78.2962 247.998 77.6227 246.996 77.6227 245.946C77.6227 244.881 78.2962 243.895 79.4707 243.206L85.2183 239.87C93.1741 235.266 106.126 235.234 114.082 239.823L293.744 343.138C296.062 344.47 297.346 346.302 297.346 348.307C297.346 350.311 296.078 352.144 293.76 353.49L219.12 396.762C215.126 399.08 209.88 400.238 204.633 400.238L204.649 400.207ZM26.5522 276.955C25.4716 276.955 24.4067 277.19 23.608 277.644L11.502 284.66C9.76366 285.663 8.824 286.947 8.824 288.278C8.824 289.609 9.77932 290.893 11.5177 291.896L191.196 395.211C198.667 399.502 210.804 399.487 218.258 395.164L292.899 351.893C294.637 350.891 295.592 349.606 295.577 348.275C295.577 346.944 294.621 345.66 292.883 344.658L113.22 241.342C105.75 237.051 93.6126 237.067 86.158 241.389L80.4104 244.725C79.8153 245.069 79.4707 245.508 79.4707 245.899C79.4707 246.291 79.8153 246.729 80.4261 247.074C81.6006 247.747 82.2741 248.75 82.2741 249.799C82.2741 250.864 81.6006 251.866 80.4261 252.54L37.1861 277.613C35.0405 278.866 31.6734 278.866 29.5122 277.613C28.7135 277.159 27.6485 276.924 26.5836 276.924L26.5522 276.955Z" fill="#242424"/>
<path d="M65.0626 253.354C63.9977 252.743 63.9977 251.756 65.0626 251.146C66.1276 250.535 67.8346 250.535 68.8996 251.146C69.9645 251.756 69.9645 252.743 68.8996 253.354C67.8346 253.965 66.1276 253.965 65.0626 253.354Z" fill="#45D3C9"/>
<path d="M36.7319 267.496L59.2681 254.481C60.1921 253.949 61.7895 254.012 62.8388 254.622C63.9037 255.233 64.0133 256.157 63.0893 256.69L40.5532 269.704C39.6292 270.236 38.0318 270.174 36.9825 269.563C35.9175 268.952 35.8079 268.028 36.7319 267.496Z" fill="#45D3C9"/>
<path d="M202.306 405.861L202.236 412.61L203.269 412.621L203.34 405.871L202.306 405.861Z" fill="#45D3C9"/>
<path d="M298.599 364.108L297.613 363.811C298.678 360.303 297.66 356.967 297.644 356.936L298.631 356.622C298.678 356.779 299.774 360.318 298.599 364.124V364.108Z" fill="#45D3C9"/>
<path d="M295.499 365.909L294.512 365.612C295.577 362.104 294.559 358.768 294.543 358.737L295.53 358.423C295.577 358.58 296.673 362.119 295.499 365.925V365.909Z" fill="#45D3C9"/>
<path d="M9.74818 306.382C9.07476 303.453 9.24703 299.147 9.24703 298.974L10.2807 299.021C10.2807 299.021 10.1084 303.359 10.7505 306.163L9.73252 306.398L9.74818 306.382Z" fill="#45D3C9"/>
<path d="M6.33412 304.409C5.6607 301.48 5.83297 297.173 5.83297 297.001L6.86659 297.048C6.86659 297.048 6.69432 301.386 7.33642 304.19L6.31846 304.424L6.33412 304.409Z" fill="#45D3C9"/>
<path d="M61.0853 334.039C60.7251 334.039 60.3335 333.929 59.942 333.695L49.042 327.399C47.9144 326.741 47.0374 325.332 47.0374 324.188V323.922C47.0374 323.311 47.2879 322.826 47.7264 322.575C48.2276 322.293 48.901 322.34 49.5744 322.732L60.4745 329.028C61.6021 329.685 62.4791 331.095 62.4791 332.238V332.504C62.4791 333.115 62.2285 333.601 61.79 333.851C61.5864 333.976 61.3358 334.023 61.0853 334.023V334.039ZM48.4468 323.452C48.3685 323.452 48.3059 323.468 48.2589 323.499C48.118 323.578 48.0866 323.812 48.0866 323.953V324.22C48.0866 325.003 48.7757 326.068 49.5744 326.537L60.4745 332.833C60.866 333.068 61.1479 333.068 61.2732 332.99C61.4141 332.912 61.4455 332.677 61.4455 332.536V332.269C61.4455 331.486 60.7564 330.421 59.9577 329.952L49.0576 323.656C48.807 323.515 48.5878 323.452 48.4468 323.452Z" fill="#45D3C9"/>
<path d="M78.563 344.141C78.2028 344.141 77.8113 344.031 77.4198 343.796L66.5197 337.516C65.3922 336.858 64.5151 335.449 64.5151 334.306V334.039C64.5151 333.429 64.7657 332.943 65.2042 332.692C65.7054 332.411 66.3788 332.458 67.0522 332.849L77.9523 339.129C79.0799 339.787 79.9569 341.196 79.9569 342.34V342.606C79.9569 343.217 79.7063 343.702 79.2678 343.953C79.0642 344.078 78.8136 344.125 78.563 344.125V344.141ZM65.9246 333.554C65.8463 333.554 65.7837 333.569 65.7367 333.601C65.5957 333.679 65.5644 333.914 65.5644 334.055V334.321C65.5644 335.104 66.2535 336.169 67.0522 336.639L77.9523 342.919C78.3438 343.154 78.6257 343.154 78.751 343.076C78.8919 342.997 78.9233 342.762 78.9233 342.622V342.355C78.9233 341.572 78.2342 340.507 77.4355 340.037L66.5354 333.757C66.2848 333.616 66.0656 333.554 65.9246 333.554Z" fill="#45D3C9"/>
<path d="M250.865 389.526C250.427 389.276 250.176 388.79 250.176 388.179V387.913C250.176 386.77 251.053 385.345 252.181 384.703L263.081 378.423C263.754 378.031 264.428 377.984 264.929 378.266C265.367 378.517 265.618 379.002 265.618 379.613V379.879C265.618 381.022 264.741 382.447 263.613 383.09L252.713 389.37C252.322 389.589 251.93 389.714 251.57 389.714C251.319 389.714 251.069 389.651 250.865 389.526ZM263.597 379.315L252.697 385.595C251.883 386.065 251.21 387.114 251.21 387.913V388.179C251.21 388.305 251.225 388.54 251.382 388.634C251.507 388.696 251.789 388.696 252.181 388.477L263.081 382.197C263.895 381.727 264.568 380.678 264.568 379.879V379.613C264.568 379.487 264.553 379.253 264.396 379.159C264.349 379.127 264.287 379.112 264.208 379.112C264.052 379.112 263.848 379.159 263.597 379.315Z" fill="#45D3C9"/>
<path d="M40.4595 322.153C40.0993 322.153 39.7078 322.043 39.3163 321.808L33.1928 318.269C32.0652 317.611 31.1882 316.201 31.1882 315.058V314.792C31.1882 314.181 31.4388 313.696 31.8773 313.445C32.3785 313.163 33.0519 313.21 33.7253 313.602L39.8488 317.141C40.9764 317.799 41.8534 319.208 41.8534 320.352V320.618C41.8534 321.229 41.6028 321.714 41.1643 321.965C40.9607 322.09 40.7101 322.137 40.4595 322.137V322.153ZM32.5821 314.306C32.5038 314.306 32.4411 314.322 32.3941 314.353C32.2532 314.432 32.2219 314.667 32.2219 314.808V315.074C32.2219 315.857 32.9109 316.922 33.7097 317.392L39.8331 320.931C40.2246 321.166 40.5065 321.166 40.6318 321.088C40.7728 321.009 40.8041 320.774 40.8041 320.633V320.367C40.8041 319.584 40.115 318.519 39.3163 318.049L33.1928 314.51C32.9423 314.369 32.723 314.306 32.5821 314.306Z" fill="#45D3C9"/>
<path d="M36.4817 317.814V317.548C36.4817 316.577 37.2647 316.248 38.2357 316.812L39.5982 317.595C40.5692 318.159 41.3523 319.396 41.3523 320.351V320.618C41.3523 321.589 40.5692 321.918 39.5982 321.354L38.2357 320.571C37.2647 320.007 36.4817 318.77 36.4817 317.814Z" fill="#45D3C9"/>
<path d="M40.4598 322.153C40.0996 322.153 39.7081 322.043 39.3166 321.808L37.9541 321.025C36.8265 320.367 35.9495 318.958 35.9495 317.814V317.548C35.9495 316.937 36.2 316.452 36.6385 316.201C37.1397 315.919 37.8131 315.966 38.4865 316.358L39.849 317.141C40.9766 317.799 41.8537 319.208 41.8537 320.352V320.618C41.8537 321.229 41.6031 321.714 41.1646 321.965C40.961 322.09 40.7104 322.137 40.4598 322.137V322.153ZM36.9987 317.814C36.9987 318.598 37.6878 319.662 38.4865 320.132L39.849 320.915C40.2406 321.15 40.5225 321.15 40.6478 321.072C40.7887 320.994 40.82 320.759 40.82 320.618V320.352C40.82 319.568 40.1309 318.504 39.3322 318.034L37.9697 317.251C37.5625 317.016 37.2806 317.016 37.171 317.094C37.0301 317.172 36.9987 317.407 36.9987 317.548V317.814Z" fill="#45D3C9"/>
<path d="M206.992 405.816L205.959 405.829L206.049 412.797L207.082 412.784L206.992 405.816Z" fill="#45D3C9"/>
<path d="M219.729 402.644L218.696 402.658L218.786 409.626L219.819 409.613L219.729 402.644Z" fill="#45D3C9"/>
<path d="M192.542 404.024L192.471 410.774L193.505 410.785L193.575 404.035L192.542 404.024Z" fill="#45D3C9"/>
<path d="M176.684 395.414L176.614 402.164L177.647 402.174L177.718 395.425L176.684 395.414Z" fill="#45D3C9"/>
<path d="M225.319 359.944L224.591 361.206L226.476 362.294L227.204 361.033L225.319 359.944Z" fill="white"/>
<path d="M244.225 372.565L239.793 369.997L240.513 368.744L244.945 371.312L244.225 372.565ZM235.345 367.444L230.913 364.876L231.633 363.623L236.065 366.191L235.345 367.444Z" fill="white"/>
<path d="M249.387 373.913L248.659 375.174L250.544 376.263L251.272 375.001L249.387 373.913Z" fill="white"/>
<path d="M250.912 346.724L197.868 377.091L178.573 365.862L231.617 335.495L250.912 346.724ZM197.883 375.791L248.641 346.724L231.617 336.811L180.86 365.878L197.883 375.791Z" fill="white"/>
<path d="M249.768 342.637L197.868 372.362L179.717 361.791L231.617 332.066L249.768 342.637Z" fill="#242424"/>
<path d="M211.712 356.325C211.352 356.529 210.976 356.685 210.553 356.763C210.13 356.857 209.692 356.889 209.222 356.842L209.159 356.873C209.52 357.03 209.833 357.202 210.115 357.359L212.354 358.643L211.524 359.113L203.662 354.571L204.336 354.179L205.197 354.54H205.244C205.166 354.226 205.197 353.96 205.338 353.725C205.479 353.49 205.745 353.255 206.105 353.052C206.826 352.629 207.625 352.457 208.517 352.519C209.394 352.582 210.287 352.864 211.18 353.381C212.072 353.897 212.558 354.414 212.667 354.931C212.777 355.448 212.464 355.902 211.743 356.309L211.712 356.325ZM206.669 353.553C206.121 353.866 205.871 354.195 205.933 354.508C205.996 354.821 206.356 355.182 207.014 355.573L207.202 355.683C207.969 356.121 208.643 356.372 209.222 356.403C209.801 356.435 210.381 356.309 210.945 355.98C211.415 355.714 211.587 355.385 211.477 355.009C211.368 354.634 210.976 354.258 210.303 353.866C209.629 353.475 208.971 353.255 208.345 353.193C207.719 353.13 207.155 353.255 206.685 353.522L206.669 353.553Z" fill="#45D3C9"/>
<path d="M218.65 352.206L217.711 351.861H217.664C217.726 352.237 217.695 352.519 217.538 352.754C217.397 352.973 217.115 353.208 216.708 353.443C216.176 353.756 215.612 353.913 215.033 353.929C214.453 353.944 213.905 353.803 213.388 353.506C212.292 352.879 212.589 352.034 214.296 350.984L215.189 350.436L214.845 350.248C214.422 349.998 214.015 349.873 213.623 349.857C213.232 349.841 212.84 349.951 212.433 350.186C211.979 350.452 211.603 350.828 211.305 351.313L210.428 351.094C210.554 350.859 210.726 350.624 210.961 350.389C211.196 350.154 211.478 349.951 211.791 349.763C212.433 349.387 213.059 349.199 213.654 349.183C214.25 349.183 214.876 349.34 215.502 349.716L219.214 351.861L218.603 352.206H218.65ZM216.207 352.942C216.724 352.645 216.975 352.331 216.99 352.002C217.006 351.674 216.755 351.36 216.254 351.063L215.769 350.781L214.986 351.282C214.359 351.674 213.983 352.002 213.874 352.269C213.764 352.535 213.905 352.786 214.281 353.005C214.578 353.177 214.892 353.255 215.236 353.24C215.565 353.24 215.894 353.13 216.223 352.942H216.207Z" fill="#45D3C9"/>
<path d="M214.657 348.228L215.534 347.711L219.825 348.808C220.796 349.058 221.469 349.262 221.845 349.418H221.892C221.767 349.277 221.563 349.058 221.297 348.745C221.031 348.432 220.216 347.445 218.885 345.801L219.762 345.284L223.615 350.201C223.991 350.687 224.163 351.094 224.1 351.423C224.053 351.752 223.803 352.049 223.349 352.3C223.098 352.441 222.816 352.566 222.519 352.676L221.861 352.3C222.08 352.222 222.299 352.112 222.534 351.987C223.098 351.658 223.192 351.251 222.785 350.734L222.315 350.107L214.657 348.212V348.228Z" fill="#45D3C9"/>
<path d="M68.3359 314.197C67.2709 314.197 66.1434 313.93 65.2507 313.414L41.6339 299.773C40.6473 299.209 40.0991 298.41 40.0991 297.565C40.0991 296.829 40.522 296.171 41.2894 295.732L114.097 253.698C115.554 252.852 117.981 252.946 119.641 253.902L143.258 267.542C144.245 268.106 144.793 268.905 144.793 269.735C144.793 270.471 144.37 271.129 143.603 271.567L70.7947 313.601C70.1212 313.993 69.2442 314.181 68.3359 314.181V314.197ZM116.54 254.591C115.883 254.591 115.272 254.716 114.818 254.982L42.0098 297.016C41.8375 297.126 41.5399 297.33 41.5399 297.596C41.5399 297.831 41.7592 298.191 42.3543 298.536L65.9711 312.176C67.177 312.865 69.0406 312.959 70.0586 312.38L142.867 270.346C143.039 270.236 143.336 270.033 143.336 269.766C143.336 269.531 143.117 269.171 142.522 268.827L118.905 255.186C118.232 254.794 117.355 254.607 116.54 254.607V254.591Z" fill="white"/>
<path d="M83.4487 322.92C82.3837 322.92 81.2561 322.654 80.3634 322.137L75.2423 319.177C74.2557 318.613 73.7075 317.814 73.7075 316.984C73.7075 316.248 74.1304 315.591 74.8978 315.152L147.706 273.118C149.162 272.272 151.59 272.366 153.25 273.322L158.371 276.282C159.357 276.845 159.906 277.644 159.906 278.474C159.906 279.21 159.483 279.868 158.715 280.306L85.9074 322.34C85.234 322.732 84.357 322.92 83.4487 322.92ZM150.164 273.995C149.507 273.995 148.896 274.12 148.442 274.387L75.6338 316.421C75.4616 316.53 75.164 316.734 75.164 317C75.164 317.235 75.3832 317.595 75.9784 317.94L81.0995 320.9C82.3054 321.589 84.1691 321.683 85.187 321.103L157.995 279.069C158.167 278.96 158.465 278.756 158.465 278.49C158.465 278.255 158.246 277.895 157.65 277.55L152.529 274.59C151.856 274.199 150.979 274.011 150.164 274.011V273.995Z" fill="white"/>
<path d="M131.857 350.875C130.792 350.875 129.664 350.608 128.772 350.092L123.65 347.132C122.664 346.568 122.116 345.769 122.116 344.939C122.116 344.203 122.539 343.545 123.306 343.107L196.114 301.073C197.57 300.227 199.998 300.321 201.658 301.276L206.779 304.236C207.766 304.8 208.314 305.599 208.314 306.429C208.314 307.165 207.891 307.823 207.124 308.261L134.316 350.295C133.642 350.687 132.765 350.875 131.857 350.875ZM198.573 301.95C197.915 301.95 197.304 302.075 196.85 302.341L124.042 344.375C123.87 344.485 123.572 344.689 123.572 344.955C123.572 345.19 123.791 345.55 124.387 345.894L129.508 348.854C130.714 349.543 132.577 349.637 133.595 349.058L206.403 307.024C206.575 306.914 206.873 306.711 206.873 306.444C206.873 306.209 206.654 305.849 206.059 305.505L200.938 302.545C200.264 302.153 199.387 301.965 198.573 301.965V301.95Z" fill="white"/>
<path d="M146.782 359.488C145.717 359.488 144.589 359.222 143.696 358.705L127.566 349.559C126.579 348.996 126.015 348.197 126.015 347.351C126.015 346.615 126.438 345.957 127.205 345.519L200.013 303.485C201.47 302.639 203.897 302.733 205.557 303.688L221.688 312.834C222.675 313.398 223.239 314.197 223.239 315.042C223.239 315.779 222.816 316.436 222.048 316.875L149.24 358.909C148.567 359.3 147.69 359.488 146.782 359.488ZM202.472 304.362C201.814 304.362 201.204 304.487 200.749 304.753L127.941 346.787C127.769 346.897 127.472 347.101 127.472 347.367C127.472 347.602 127.691 347.962 128.286 348.306L144.417 357.452C145.623 358.142 147.502 358.236 148.504 357.656L221.312 315.622C221.485 315.512 221.782 315.309 221.782 315.042C221.782 314.808 221.563 314.447 220.968 314.103L204.837 304.957C204.163 304.565 203.286 304.362 202.472 304.362Z" fill="white"/>
<path d="M116.619 342.058C115.554 342.058 114.426 341.791 113.534 341.275L90.9662 328.245C89.9795 327.681 89.4314 326.882 89.4314 326.052C89.4314 325.316 89.8542 324.658 90.6216 324.22L122.116 306.037C123.572 305.192 126 305.286 127.66 306.241L150.227 319.271C151.214 319.835 151.762 320.633 151.762 321.479C151.762 322.215 151.339 322.873 150.572 323.311L119.078 341.494C118.404 341.885 117.527 342.073 116.619 342.073V342.058ZM124.575 306.899C123.917 306.899 123.306 307.024 122.852 307.29L91.3577 325.473C91.1854 325.582 90.8879 325.786 90.8879 326.052C90.8879 326.287 91.1071 326.647 91.7022 326.992L114.27 340.022C115.476 340.711 117.339 340.805 118.357 340.225L149.852 322.043C150.024 321.949 150.321 321.73 150.321 321.463C150.321 321.229 150.102 320.868 149.507 320.524L126.939 307.494C126.266 307.102 125.389 306.914 124.575 306.914V306.899Z" fill="white"/>
<path d="M157.917 318.206C156.852 318.206 155.724 317.94 154.832 317.423L132.264 304.393C131.277 303.829 130.729 303.031 130.729 302.2C130.729 301.464 131.152 300.807 131.919 300.368L163.414 282.186C164.87 281.34 167.298 281.434 168.958 282.389L191.525 295.419C192.512 295.983 193.06 296.782 193.06 297.627C193.06 298.364 192.637 299.021 191.87 299.46L160.376 317.642C159.702 318.034 158.825 318.222 157.917 318.222V318.206ZM165.873 283.047C165.215 283.047 164.604 283.172 164.15 283.439L132.656 301.621C132.483 301.731 132.186 301.934 132.186 302.2C132.186 302.435 132.405 302.796 133 303.14L155.568 316.17C156.773 316.859 158.637 316.953 159.655 316.374L191.149 298.191C191.322 298.097 191.619 297.878 191.619 297.612C191.619 297.377 191.4 297.017 190.805 296.672L168.237 283.642C167.564 283.251 166.687 283.063 165.873 283.063V283.047Z" fill="white"/>
<path d="M130.798 308.78L94.8372 329.559L95.5658 330.82L131.527 310.041L130.798 308.78Z" fill="white"/>
<path d="M172.204 284.647L136.242 305.426L136.971 306.687L172.932 285.908L172.204 284.647Z" fill="white"/>
<path d="M256.471 362.432C257.787 363.513 256.691 365.016 256.487 365.283C256.487 365.283 256.487 365.314 256.518 365.298C256.972 365.173 259.588 364.547 261.451 365.298C261.483 365.298 261.514 365.298 261.483 365.283C260.167 364.202 261.279 362.683 261.483 362.417C261.483 362.417 261.483 362.385 261.451 362.401C260.997 362.526 258.351 363.169 256.487 362.401C256.456 362.401 256.424 362.401 256.456 362.417L256.471 362.432Z" fill="#242424"/>
<path d="M263.629 358.314C264.944 359.395 263.848 360.898 263.644 361.164C263.644 361.164 263.644 361.196 263.676 361.18C264.13 361.055 266.745 360.428 268.609 361.18C268.64 361.18 268.672 361.18 268.64 361.164C267.325 360.084 268.437 358.564 268.64 358.298C268.64 358.298 268.64 358.267 268.609 358.283C268.155 358.408 265.508 359.05 263.644 358.283C263.613 358.283 263.582 358.283 263.613 358.298L263.629 358.314Z" fill="#242424"/>
<path d="M270.77 354.179C272.085 355.26 270.989 356.763 270.785 357.03C270.785 357.03 270.785 357.061 270.817 357.045C271.271 356.92 273.886 356.294 275.75 357.045C275.781 357.045 275.813 357.045 275.781 357.03C274.466 355.949 275.578 354.43 275.781 354.164C275.781 354.164 275.781 354.132 275.75 354.148C275.296 354.273 272.649 354.915 270.785 354.148C270.754 354.148 270.723 354.148 270.754 354.164L270.77 354.179Z" fill="#242424"/>
<path d="M277.911 350.06C279.226 351.141 278.13 352.645 277.927 352.911C277.927 352.911 277.927 352.942 277.958 352.926C278.412 352.801 281.027 352.175 282.891 352.926C282.922 352.926 282.954 352.926 282.922 352.911C281.607 351.83 282.719 350.311 282.922 350.045C282.922 350.045 282.922 350.014 282.891 350.029C282.437 350.154 279.79 350.797 277.927 350.029C277.895 350.029 277.864 350.029 277.895 350.045L277.911 350.06Z" fill="#242424"/>
<path d="M285.068 345.926C286.384 347.007 285.288 348.51 285.084 348.776C285.084 348.776 285.084 348.808 285.115 348.792C285.57 348.667 288.185 348.04 290.049 348.792C290.08 348.792 290.111 348.792 290.08 348.776C288.764 347.696 289.876 346.177 290.08 345.91C290.08 345.91 290.08 345.879 290.049 345.895C289.594 346.02 286.948 346.662 285.084 345.895C285.053 345.895 285.021 345.895 285.053 345.91L285.068 345.926Z" fill="#242424"/>
<path d="M256.456 354.164C257.771 355.244 256.675 356.748 256.471 357.014C256.471 357.014 256.471 357.045 256.503 357.03C256.957 356.904 259.572 356.278 261.436 357.03C261.467 357.03 261.498 357.03 261.467 357.014C260.152 355.933 261.264 354.414 261.467 354.148C261.467 354.148 261.467 354.117 261.436 354.132C260.982 354.258 258.335 354.9 256.471 354.132C256.44 354.132 256.409 354.132 256.44 354.148L256.456 354.164Z" fill="#242424"/>
<path d="M263.597 350.045C264.913 351.125 263.816 352.629 263.613 352.895C263.613 352.895 263.613 352.926 263.644 352.911C264.098 352.786 266.714 352.159 268.577 352.911C268.609 352.911 268.64 352.911 268.609 352.895C267.293 351.815 268.405 350.295 268.609 350.029C268.609 350.029 268.609 349.998 268.577 350.014C268.123 350.139 265.477 350.781 263.613 350.014C263.582 350.014 263.55 350.014 263.582 350.029L263.597 350.045Z" fill="#242424"/>
<path d="M270.738 345.91C272.054 346.991 270.958 348.494 270.754 348.761C270.754 348.761 270.754 348.792 270.785 348.776C271.239 348.651 273.855 348.025 275.719 348.776C275.75 348.776 275.781 348.776 275.75 348.761C274.434 347.68 275.546 346.161 275.75 345.895C275.75 345.895 275.75 345.863 275.719 345.879C275.264 346.004 272.618 346.646 270.754 345.879C270.723 345.879 270.691 345.879 270.723 345.895L270.738 345.91Z" fill="#242424"/>
<path d="M277.88 341.791C279.195 342.872 278.099 344.376 277.896 344.642C277.896 344.642 277.896 344.673 277.927 344.657C278.381 344.532 280.996 343.906 282.86 344.657C282.891 344.657 282.923 344.657 282.891 344.642C281.576 343.561 282.688 342.042 282.891 341.776C282.891 341.776 282.891 341.744 282.86 341.76C282.406 341.885 279.759 342.528 277.896 341.76C277.864 341.76 277.833 341.76 277.864 341.776L277.88 341.791Z" fill="#242424"/>
<path d="M73.0499 297.377L71.2175 296.312L75.1641 294.026L76.9964 295.09L73.0499 297.377Z" fill="white"/>
<path d="M86.784 293.039L84.5132 294.354L78.2801 290.752L77.2778 290.141L76.1972 289.468C76.1972 289.907 76.1972 290.204 76.1502 290.345L75.9153 291.629L73.4565 291.473L74.1613 287.871L76.0249 286.79L86.784 293.007V293.039Z" fill="white"/>
<path d="M91.8587 283.908C93.738 284.989 94.8186 285.976 95.1005 286.853C95.3824 287.73 94.8969 288.544 93.6127 289.28C92.3755 290.001 90.966 290.267 89.3999 290.094C87.8338 289.922 86.1424 289.311 84.3257 288.262C82.4307 287.166 81.3345 286.179 81.0526 285.302C80.7707 284.425 81.2562 283.626 82.5404 282.89C83.7776 282.17 85.1871 281.904 86.7688 282.076C88.3506 282.248 90.042 282.859 91.8587 283.908ZM86.5966 286.947C87.9121 287.714 88.977 288.184 89.7757 288.387C90.5745 288.591 91.2479 288.528 91.7803 288.215C92.3128 287.902 92.4068 287.526 92.0622 287.056C91.7177 286.586 90.8877 285.976 89.5878 285.224C88.2723 284.457 87.2073 283.987 86.393 283.783C85.5786 283.58 84.9052 283.642 84.3884 283.94C83.8559 284.253 83.7619 284.629 84.1065 285.099C84.451 285.568 85.281 286.179 86.6122 286.947H86.5966Z" fill="white"/>
<path d="M100.457 278.928C102.336 280.009 103.416 280.996 103.698 281.873C103.98 282.75 103.495 283.564 102.211 284.3C100.973 285.02 99.5639 285.287 97.9978 285.114C96.4317 284.942 94.7403 284.331 92.9236 283.282C91.0286 282.186 89.9324 281.199 89.6505 280.322C89.3686 279.445 89.8541 278.646 91.1383 277.91C92.3755 277.19 93.785 276.924 95.3667 277.096C96.9485 277.268 98.6399 277.879 100.457 278.928ZM95.1945 281.966C96.51 282.734 97.5749 283.204 98.3736 283.407C99.1724 283.611 99.8458 283.548 100.378 283.235C100.911 282.922 101.005 282.546 100.66 282.076C100.316 281.606 99.4856 280.996 98.1857 280.244C96.8702 279.476 95.8052 279.007 94.9909 278.803C94.1765 278.599 93.5031 278.662 92.9863 278.96C92.4538 279.273 92.3598 279.649 92.7044 280.118C93.0489 280.588 93.8789 281.199 95.2101 281.966H95.1945Z" fill="white"/>
<path d="M114.959 272.883C115.742 273.337 116.086 273.854 115.992 274.465C115.898 275.06 115.397 275.686 114.473 276.328L115.977 277.205L114.974 277.785L113.502 276.924C112.281 277.597 111.012 278.082 109.712 278.38L107.77 277.252C108.412 277.127 109.102 276.939 109.869 276.689C110.636 276.438 111.263 276.188 111.764 275.921L109.477 274.606L108.788 274.778C107.441 275.123 106.33 275.279 105.484 275.248C104.622 275.217 103.871 275.013 103.213 274.637C102.508 274.23 102.195 273.729 102.289 273.134C102.383 272.554 102.884 271.943 103.777 271.301L102.649 270.644L103.652 270.064L104.748 270.691C105.922 270.064 107.16 269.61 108.475 269.328L109.509 270.722C108.428 270.988 107.457 271.333 106.58 271.755L108.757 273.008C110.088 272.664 111.075 272.46 111.748 272.382C112.422 272.304 113.017 272.304 113.534 272.382C114.05 272.46 114.52 272.617 114.943 272.867L114.959 272.883ZM105.421 273.353C105.64 273.478 105.891 273.541 106.173 273.525C106.455 273.525 106.846 273.463 107.332 273.353L105.609 272.351C105.077 272.773 105.014 273.102 105.421 273.337V273.353ZM112.845 274.23C112.641 274.105 112.375 274.058 112.077 274.073C111.764 274.073 111.372 274.152 110.887 274.246L112.719 275.311C113.267 274.856 113.314 274.496 112.845 274.23Z" fill="white"/>
<path d="M296.141 261.247L244.24 231.444V231.413L285.82 229.142C285.82 229.142 285.82 229.142 285.836 229.142L296.156 261.216C296.156 261.216 296.156 261.247 296.125 261.231L296.141 261.247Z" fill="#45D3C9"/>
<path d="M296.234 262.375L295.686 262.061L243.19 231.914L243.472 230.536L244.193 230.457L286.524 228.14L286.775 228.829L297.299 261.545L296.25 262.359L296.234 262.375ZM247.435 232.18L294.558 259.242L285.193 230.129L247.435 232.196V232.18Z" fill="#242424"/>
<path d="M285.851 229.142L296.172 261.2C296.172 261.2 296.203 261.216 296.203 261.2L306.101 218.242L303.704 203.896L198.588 167.829C198.588 167.829 198.557 167.829 198.572 167.86L246.307 220.419L285.851 229.158V229.142Z" fill="#45D3C9"/>
<path d="M295.498 262.187L295.264 261.482L285.115 229.941L245.822 221.249L245.618 221.045L197.351 167.907L198.165 166.67L198.87 166.905L304.488 203.145L304.613 203.677L306.978 217.788L307.244 218.054L306.994 218.571L296.955 262.124L295.498 262.187ZM246.808 219.542L286.54 228.327L286.76 228.86L296.047 257.723L305.161 218.21L302.875 204.585L201.689 169.865L246.808 219.542Z" fill="#242424"/>
<path d="M198.541 167.845L238.477 255.938C238.477 255.938 238.492 255.938 238.508 255.938L285.836 229.158C285.836 229.158 285.836 229.142 285.836 229.126L198.573 167.829C198.573 167.829 198.541 167.829 198.541 167.845Z" fill="white"/>
<path d="M238.618 256.956L237.835 256.721L237.647 256.345L197.398 167.547L198.541 166.623L199.136 167.062L286.775 228.625V229.659L286.337 229.956L238.618 256.956ZM200.796 170.539L238.915 254.622L284.097 229.064L200.796 170.554V170.539Z" fill="#242424"/>
<path d="M198.651 167.845L306.101 218.226C306.101 218.226 306.101 218.226 306.117 218.226L344.831 196.974V196.943L198.667 167.813C198.667 167.813 198.635 167.845 198.667 167.845H198.651Z" fill="white"/>
<path d="M306.132 219.291L305.678 219.072L198.259 168.706L197.508 168.377L197.962 166.749L198.807 166.874L345.645 196.144L345.864 197.46L345.269 197.804L306.117 219.291H306.132ZM205.933 170.225L306.07 217.177L342.152 197.366L205.933 170.21V170.225Z" fill="#242424"/>
<path d="M296.081 235.116L294.547 242.043L296.381 242.449L297.916 235.523L296.081 235.116Z" fill="#242424"/>
<path d="M300.344 215.754L296.825 231.641L298.66 232.047L302.179 216.16L300.344 215.754Z" fill="#242424"/>
<path d="M292.284 211.952L289.275 224.952L291.106 225.376L294.114 212.376L292.284 211.952Z" fill="#242424"/>
<path d="M272.987 226.585L262.032 232.761L262.955 234.398L273.91 228.222L272.987 226.585Z" fill="#242424"/>
<path d="M258.896 234.543L234.816 248.117L235.739 249.754L259.818 236.18L258.896 234.543Z" fill="#242424"/>
<path d="M326.947 197.58L320.052 201.358L320.955 203.006L327.85 199.228L326.947 197.58Z" fill="#242424"/>
<path d="M316.978 203.019L297.53 213.676L298.433 215.324L317.881 204.667L316.978 203.019Z" fill="#242424"/>
<path d="M247.692 232.218L231.738 241.325L232.67 242.957L248.624 233.85L247.692 232.218Z" fill="#242424"/>
<path d="M307.032 201.308L290.464 210.244L291.356 211.898L307.925 202.962L307.032 201.308Z" fill="#242424"/>
<path d="M219.915 189.328L210.596 194.952L211.567 196.561L220.886 190.937L219.915 189.328Z" fill="#242424"/>
<path d="M217.398 197.548L213.043 199.996L213.964 201.635L218.319 199.187L217.398 197.548Z" fill="#242424"/>
<path d="M305.634 188.44L295.751 194.125L296.688 195.754L306.571 190.069L305.634 188.44Z" fill="#242424"/>
<path d="M293.833 195.181L289.734 197.542L290.672 199.17L294.771 196.81L293.833 195.181Z" fill="#242424"/>
<path d="M271.857 237.275L270.072 237.86L273.796 249.215L275.582 248.629L271.857 237.275Z" fill="#242424"/>
<path d="M277.414 237.256L275.628 237.839L277.183 242.603L278.97 242.02L277.414 237.256Z" fill="#242424"/>
<path d="M279.684 244.273L277.898 244.856L280.561 253.014L282.348 252.431L279.684 244.273Z" fill="#242424"/>
<path d="M340.461 254.842L338.582 254.685C339.537 243.895 334.009 233.558 324.518 228.343L318.144 224.835L319.052 223.191L325.426 226.699C335.575 232.274 341.479 243.331 340.461 254.857V254.842Z" fill="#242424"/>
<path d="M346.741 249.407L344.862 249.251C345.488 242.172 343.374 235.218 338.91 229.69L340.383 228.5C345.159 234.42 347.414 241.843 346.757 249.407H346.741Z" fill="#242424"/>
<path d="M346.835 253.291H344.956V266.384H346.835V253.291Z" fill="#242424"/>
<path d="M218.065 224.792L216.347 225.555L220.093 233.984L221.811 233.221L218.065 224.792Z" fill="#242424"/>
<path d="M209.805 206.281L208.088 207.044L214.867 222.3L216.585 221.537L209.805 206.281Z" fill="#242424"/>
<path d="M175.398 60.891C176.542 62.6069 178.353 64.2546 180.832 65.6845L335.219 154.787C343.566 159.608 356.204 160.125 363.435 155.958L431.035 116.915C434.085 115.145 435.678 112.83 435.883 110.365C436.645 106.307 435.474 101.65 435.474 101.65L430.98 101.908C430.367 101.473 429.727 101.037 429.006 100.615L274.619 11.5259C266.271 6.70512 253.633 6.18764 246.402 10.3547L178.803 49.3974L173.669 49.1251C173.669 49.1251 171.708 54.6948 175.085 60.4008C175.099 60.428 175.126 60.4552 175.139 60.4825C175.208 60.605 175.289 60.7276 175.371 60.8365C175.371 60.8365 175.385 60.8638 175.398 60.8774V60.891Z" fill="#242424"/>
<path d="M351.179 159.553C345.487 159.553 339.495 158.178 334.824 155.481L180.437 66.379C177.931 64.9355 176.025 63.2469 174.745 61.3403L174.649 61.2042C174.581 61.1088 174.513 61.0135 174.459 60.9046C170.864 54.8446 172.825 49.1114 172.92 48.8663L173.111 48.308L178.599 48.5939L245.994 9.66017C253.429 5.37051 266.434 5.88799 275 10.8313L429.387 99.9337C429.973 100.274 430.545 100.642 431.185 101.105L436.073 100.832L436.237 101.459C436.291 101.663 437.435 106.334 436.659 110.501V110.569C436.359 113.347 434.562 115.771 431.43 117.583L363.83 156.625C360.453 158.573 355.918 159.539 351.179 159.539V159.553ZM176.038 60.4416H176.052C177.182 62.1574 178.925 63.6963 181.227 65.0172L335.614 154.12C343.744 158.804 356.041 159.335 363.054 155.291L430.654 116.248C433.377 114.668 434.916 112.626 435.107 110.311L435.188 109.861C435.638 106.974 435.134 103.801 434.861 102.48L431.58 102.671L431.416 103.202L430.517 102.562C429.823 102.058 429.224 101.663 428.611 101.309L274.238 12.2067C266.121 7.52215 253.811 6.99105 246.797 11.0356L178.994 50.2008L174.254 49.9557C173.9 51.4537 173.219 55.7161 175.766 60.0194C175.861 60.1828 175.916 60.2509 175.97 60.3326L175.398 60.891L176.038 60.4416Z" fill="#242424"/>
<path d="M178.517 42.6157L246.117 3.57298C253.348 -0.607732 265.985 -0.0766314 274.333 4.74413L428.72 93.8465C437.068 98.6672 437.98 105.966 430.749 110.134L363.149 149.176C355.918 153.357 343.281 152.826 334.933 148.005L180.546 58.9028C172.198 54.082 171.286 46.7828 178.517 42.6157Z" fill="white"/>
<path d="M350.893 152.771C345.201 152.771 339.209 151.396 334.538 148.7L180.151 59.5973C175.507 56.9146 172.852 53.3058 172.852 49.697C172.852 46.6602 174.717 43.9094 178.122 41.9484L245.722 2.90571C253.157 -1.38395 266.176 -0.866465 274.728 4.07686L429.115 93.1792C433.758 95.862 436.414 99.4571 436.414 103.066C436.414 106.103 434.535 108.853 431.144 110.814L363.544 149.857C360.167 151.805 355.632 152.771 350.893 152.771ZM258.373 1.5303C253.92 1.5303 249.671 2.42908 246.511 4.25389L178.912 43.2966C176.011 44.9716 174.418 47.2458 174.418 49.697C174.418 52.7339 176.787 55.8387 180.941 58.2355L335.328 147.338C343.444 152.022 355.755 152.554 362.768 148.509L430.368 109.466C433.268 107.791 434.861 105.517 434.861 103.066C434.861 100.029 432.478 96.9242 428.338 94.5274L273.952 5.42504C269.499 2.85124 263.793 1.5303 258.386 1.5303H258.373Z" fill="#242424"/>
<path d="M246.797 8.85692L241.8 11.7575C240.179 12.6972 240.179 14.2224 241.8 15.162C243.42 16.0881 243.42 17.6269 241.8 18.5665L204.2 40.3689C202.58 41.3085 199.938 41.3085 198.304 40.3689C196.683 39.4429 194.028 39.4429 192.407 40.3689L181.881 46.4697C178.245 48.5805 178.245 52.0123 181.881 54.1094L338.119 143.947C344.82 147.801 355.755 147.774 362.441 143.906L427.344 106.28C430.98 104.169 430.98 100.737 427.344 98.6402L271.119 8.81607C264.419 4.96218 253.484 4.98942 246.797 8.85692Z" fill="#45D3C9"/>
<path d="M350.266 147.61C345.745 147.61 341.211 146.616 337.765 144.642L181.54 54.8039C179.524 53.6463 178.408 52.053 178.408 50.3099C178.408 48.5668 179.511 46.9735 181.526 45.8024L192.053 39.7016C193.919 38.6121 196.86 38.6121 198.726 39.7016C200.115 40.505 202.443 40.4914 203.832 39.7016L241.432 17.8992C241.949 17.5996 242.249 17.2183 242.249 16.8778C242.249 16.5374 241.949 16.1561 241.418 15.8565C240.397 15.2709 239.811 14.3994 239.811 13.487C239.811 12.5609 240.397 11.703 241.418 11.1038L246.416 8.20319C253.334 4.19951 264.596 4.17228 271.514 8.16234L427.753 98.0001C429.768 99.1576 430.885 100.751 430.885 102.494C430.885 104.237 429.782 105.83 427.766 107.002L362.863 144.628C359.39 146.643 354.828 147.651 350.266 147.651V147.61ZM195.389 40.4369C194.45 40.4369 193.524 40.6412 192.829 41.0361L182.302 47.137C180.791 48.0085 179.974 49.1252 179.974 50.2827C179.974 51.4402 180.804 52.5569 182.316 53.4285L338.541 143.266C345.037 146.998 355.591 146.984 362.073 143.225L426.976 105.599C428.488 104.727 429.319 103.611 429.305 102.453C429.305 101.296 428.474 100.179 426.963 99.3074L270.738 9.4969C264.242 5.76558 253.688 5.7792 247.206 9.53776L242.208 12.4384C241.69 12.738 241.391 13.1193 241.391 13.4597C241.391 13.8138 241.69 14.1815 242.222 14.4811C243.243 15.0666 243.828 15.9382 243.828 16.8506C243.828 17.7766 243.243 18.6482 242.222 19.2337L204.622 41.0361C202.757 42.1255 199.829 42.1255 197.95 41.0361C197.255 40.6412 196.329 40.4369 195.403 40.4369H195.389Z" fill="#242424"/>
<path d="M228.876 19.9146C227.95 19.3835 227.95 18.5256 228.876 17.9945C229.802 17.4634 231.286 17.4634 232.212 17.9945C233.138 18.5256 233.138 19.3835 232.212 19.9146C231.286 20.4457 229.802 20.4457 228.876 19.9146Z" fill="#45D3C9"/>
<path d="M204.255 32.2115L223.851 20.895C224.654 20.432 226.043 20.4864 226.956 21.0175C227.882 21.5486 227.977 22.3521 227.174 22.8151L207.577 34.1316C206.774 34.5946 205.385 34.5402 204.473 34.0091C203.547 33.478 203.451 32.6745 204.255 32.2115Z" fill="#45D3C9"/>
<path d="M348.235 152.507L348.174 158.376L349.073 158.386L349.134 152.517L348.235 152.507Z" fill="#45D3C9"/>
<path d="M431.961 116.221L431.103 115.962C432.029 112.912 431.144 110.011 431.13 109.984L431.988 109.711C432.029 109.848 432.982 112.925 431.961 116.234V116.221Z" fill="#45D3C9"/>
<path d="M429.251 117.801L428.393 117.542C429.319 114.491 428.433 111.591 428.42 111.563L429.278 111.291C429.319 111.427 430.272 114.505 429.251 117.814V117.801Z" fill="#45D3C9"/>
<path d="M180.791 66.025C180.206 63.4785 180.355 59.7335 180.355 59.5837L181.254 59.6246C181.254 59.6246 181.104 63.3968 181.663 65.8344L180.777 66.0387L180.791 66.025Z" fill="#45D3C9"/>
<path d="M177.823 64.3092C177.237 61.7627 177.387 58.0177 177.387 57.8679L178.286 57.9088C178.286 57.9088 178.136 61.681 178.694 64.1186L177.809 64.3228L177.823 64.3092Z" fill="#45D3C9"/>
<path d="M225.417 90.0879C225.104 90.0879 224.764 89.9926 224.423 89.7883L214.945 84.3139C213.965 83.7419 213.202 82.5163 213.202 81.5222V81.2907C213.202 80.7596 213.42 80.3374 213.801 80.1195C214.237 79.8744 214.822 79.9153 215.408 80.2557L224.886 85.7301C225.867 86.3021 226.629 87.5277 226.629 88.5218V88.7533C226.629 89.2844 226.411 89.7066 226.03 89.9245C225.853 90.0334 225.635 90.0743 225.417 90.0743V90.0879ZM214.428 80.8821C214.359 80.8821 214.305 80.8958 214.264 80.923C214.142 80.9911 214.114 81.1954 214.114 81.3179V81.5494C214.114 82.2303 214.713 83.1563 215.408 83.5649L224.886 89.0393C225.227 89.2436 225.472 89.2436 225.581 89.1755C225.703 89.1074 225.73 88.9031 225.73 88.7806V88.5491C225.73 87.8682 225.131 86.9421 224.437 86.5336L214.959 81.0592C214.741 80.9366 214.55 80.8821 214.428 80.8821Z" fill="#45D3C9"/>
<path d="M240.615 98.858C240.302 98.858 239.961 98.7626 239.621 98.5584L230.143 93.0976C229.162 92.5256 228.4 91.3 228.4 90.3059V90.0744C228.4 89.5433 228.618 89.1211 228.999 88.9032C229.435 88.6581 230.02 88.699 230.606 89.0394L240.084 94.5002C241.064 95.0722 241.827 96.2978 241.827 97.2919V97.5234C241.827 98.0545 241.609 98.4767 241.228 98.6945C241.051 98.8035 240.833 98.8443 240.615 98.8443V98.858ZM229.625 89.6522C229.557 89.6522 229.503 89.6658 229.462 89.6931C229.339 89.7612 229.312 89.9654 229.312 90.088V90.3195C229.312 91.0004 229.911 91.9264 230.606 92.335L240.084 97.7958C240.424 98 240.669 98 240.778 97.9319C240.901 97.8638 240.928 97.6596 240.928 97.537V97.3055C240.928 96.6246 240.329 95.6986 239.634 95.2901L230.156 89.8293C229.938 89.7067 229.748 89.6522 229.625 89.6522Z" fill="#45D3C9"/>
<path d="M390.44 138.323C390.059 138.105 389.841 137.683 389.841 137.152V136.92C389.841 135.926 390.603 134.687 391.584 134.128L401.062 128.668C401.648 128.327 402.233 128.286 402.669 128.531C403.05 128.749 403.268 129.171 403.268 129.703V129.934C403.268 130.928 402.506 132.167 401.525 132.726L392.047 138.187C391.706 138.377 391.366 138.486 391.053 138.486C390.835 138.486 390.617 138.432 390.44 138.323ZM401.511 129.444L392.033 134.905C391.325 135.313 390.74 136.226 390.74 136.92V137.152C390.74 137.261 390.753 137.465 390.889 137.546C390.998 137.601 391.243 137.615 391.584 137.41L401.062 131.95C401.77 131.541 402.356 130.629 402.356 129.934V129.703C402.356 129.594 402.342 129.389 402.206 129.308C402.165 129.28 402.111 129.267 402.043 129.267C401.906 129.267 401.729 129.308 401.511 129.444Z" fill="#45D3C9"/>
<path d="M207.496 79.7382C207.183 79.7382 206.842 79.6429 206.502 79.4387L201.177 76.361C200.197 75.789 199.434 74.5634 199.434 73.5693V73.3378C199.434 72.8067 199.652 72.3845 200.033 72.1667C200.469 71.9215 201.055 71.9624 201.64 72.3028L206.965 75.3805C207.945 75.9525 208.708 77.1781 208.708 78.1722V78.4037C208.708 78.9348 208.49 79.3569 208.109 79.5748C207.932 79.6838 207.714 79.7246 207.496 79.7246V79.7382ZM200.646 72.9156C200.578 72.9156 200.524 72.9293 200.483 72.9565C200.36 73.0246 200.333 73.2289 200.333 73.3514V73.5829C200.333 74.2638 200.932 75.1898 201.627 75.5984L206.951 78.676C207.292 78.8803 207.537 78.8803 207.646 78.8122C207.768 78.7441 207.796 78.5399 207.796 78.4173V78.1858C207.796 77.5049 207.196 76.5789 206.502 76.1703L201.177 73.0927C200.959 72.9565 200.769 72.9156 200.646 72.9156Z" fill="#45D3C9"/>
<path d="M204.023 75.966V75.7345C204.023 74.8902 204.704 74.6042 205.549 75.0944L206.733 75.7753C207.578 76.2656 208.259 77.3414 208.259 78.1721V78.4036C208.259 79.2479 207.578 79.5339 206.733 79.0437L205.549 78.3628C204.704 77.8725 204.023 76.7967 204.023 75.966Z" fill="#45D3C9"/>
<path d="M207.496 79.7382C207.183 79.7382 206.843 79.6429 206.502 79.4386L205.317 78.7577C204.337 78.1994 203.574 76.9601 203.574 75.966V75.7345C203.574 75.2034 203.792 74.7813 204.173 74.5634C204.609 74.3183 205.195 74.3591 205.78 74.6996L206.965 75.3805C207.946 75.9524 208.708 77.178 208.708 78.1721V78.4037C208.708 78.9348 208.49 79.3569 208.109 79.5748C207.932 79.6837 207.714 79.7246 207.496 79.7246V79.7382ZM204.487 75.966C204.487 76.6469 205.086 77.573 205.78 77.9815L206.965 78.6624C207.306 78.8667 207.551 78.8667 207.66 78.7986C207.782 78.7305 207.809 78.5262 207.809 78.4037V78.1721C207.809 77.4912 207.21 76.5652 206.516 76.1567L205.331 75.4758C204.977 75.2715 204.732 75.2715 204.636 75.3396C204.514 75.4077 204.487 75.612 204.487 75.7345V75.966Z" fill="#45D3C9"/>
<path d="M352.289 152.483L351.39 152.494L351.468 158.554L352.367 158.542L352.289 152.483Z" fill="#45D3C9"/>
<path d="M363.365 149.712L362.466 149.723L362.544 155.783L363.443 155.771L363.365 149.712Z" fill="#45D3C9"/>
<path d="M339.744 150.924L339.683 156.793L340.581 156.802L340.643 150.933L339.744 150.924Z" fill="#45D3C9"/>
<path d="M325.983 143.478L325.921 149.347L326.82 149.356L326.881 143.487L325.983 143.478Z" fill="#45D3C9"/>
<path d="M368.228 112.605L367.595 113.702L369.234 114.649L369.867 113.552L368.228 112.605Z" fill="white"/>
<path d="M384.679 123.575L380.825 121.341L381.452 120.252L385.305 122.485L384.679 123.575ZM376.958 119.121L373.104 116.888L373.73 115.799L377.584 118.032L376.958 119.121Z" fill="white"/>
<path d="M389.157 124.704L388.523 125.801L390.162 126.748L390.796 125.651L389.157 124.704Z" fill="white"/>
<path d="M390.48 101.105L344.356 127.51L327.579 117.746L373.703 91.3407L390.48 101.105ZM344.37 126.38L388.506 101.105L373.703 92.4846L329.567 117.76L344.37 126.38Z" fill="white"/>
<path d="M389.5 97.5506L344.37 123.398L328.573 114.205L373.703 88.3585L389.5 97.5506Z" fill="#242424"/>
<path d="M231.722 72.8203C230.796 72.8203 229.816 72.5888 229.04 72.1394L208.504 60.2781C207.646 59.7879 207.169 59.0934 207.169 58.358C207.169 57.7179 207.537 57.146 208.204 56.7647L271.514 20.2141C272.781 19.4787 274.891 19.5604 276.335 20.3911L296.871 32.2523C297.729 32.7426 298.205 33.4371 298.205 34.1725C298.205 34.8125 297.838 35.3845 297.17 35.7658L233.86 72.3164C233.275 72.6568 232.512 72.8203 231.722 72.8203ZM273.638 20.9903C273.067 20.9903 272.535 21.0992 272.141 21.3307L208.831 57.8814C208.681 57.9631 208.422 58.1537 208.422 58.3852C208.422 58.5895 208.613 58.9027 209.13 59.2023L229.666 71.0635C230.715 71.6627 232.335 71.7444 233.22 71.2406L296.53 34.69C296.68 34.6083 296.939 34.4176 296.939 34.1861C296.939 33.9818 296.748 33.6686 296.231 33.369L275.695 21.5078C275.109 21.1673 274.347 21.0039 273.638 21.0039V20.9903Z" fill="white"/>
<path d="M244.863 80.4055C243.937 80.4055 242.957 80.174 242.181 79.7246L237.728 77.1508C236.87 76.6606 236.393 75.966 236.393 75.2307C236.393 74.5906 236.761 74.0187 237.428 73.6374L300.738 37.0867C302.004 36.3514 304.115 36.4331 305.559 37.2638L310.012 39.8376C310.87 40.3278 311.346 41.0223 311.346 41.7577C311.346 42.3978 310.979 42.9697 310.311 43.351L247.001 79.9016C246.416 80.2421 245.653 80.4055 244.863 80.4055ZM302.876 37.863C302.304 37.863 301.773 37.9719 301.378 38.2034L238.068 74.754C237.918 74.8357 237.66 75.0264 237.66 75.2579C237.66 75.4622 237.85 75.7754 238.368 76.075L242.821 78.6488C243.869 79.248 245.49 79.3297 246.375 78.8258L309.685 42.2752C309.835 42.1935 310.093 42.0028 310.093 41.7713C310.093 41.5671 309.903 41.2538 309.385 40.9542L304.932 38.3805C304.347 38.04 303.584 37.8766 302.876 37.8766V37.863Z" fill="white"/>
<path d="M286.97 104.714C286.044 104.714 285.064 104.482 284.287 104.033L279.834 101.459C278.976 100.969 278.5 100.274 278.5 99.5389C278.5 98.8988 278.867 98.3269 279.535 97.9456L342.845 61.395C344.111 60.6596 346.222 60.7413 347.665 61.572L352.118 64.1458C352.963 64.636 353.453 65.3306 353.453 66.0523C353.453 66.6924 353.085 67.2643 352.418 67.6456L289.108 104.196C288.523 104.537 287.76 104.7 286.97 104.7V104.714ZM344.983 62.1712C344.411 62.1712 343.88 62.2801 343.485 62.5116L280.175 99.0623C280.025 99.144 279.766 99.3346 279.766 99.5661C279.766 99.7704 279.957 100.084 280.474 100.383L284.927 102.957C285.976 103.556 287.597 103.638 288.482 103.134L351.792 66.5834C351.941 66.5017 352.2 66.3111 352.2 66.0796C352.2 65.8753 352.01 65.5621 351.492 65.2625L347.039 62.6887C346.453 62.3482 345.691 62.1848 344.983 62.1848V62.1712Z" fill="white"/>
<path d="M299.948 112.204C299.022 112.204 298.042 111.972 297.265 111.523L283.239 103.57C282.381 103.079 281.891 102.371 281.891 101.65C281.891 101.01 282.258 100.438 282.926 100.056L346.236 63.5057C347.502 62.7703 349.613 62.852 351.056 63.6827L365.083 71.6356C365.941 72.1259 366.431 72.8204 366.431 73.5558C366.431 74.1958 366.063 74.7677 365.396 75.1491L302.086 111.7C301.5 112.04 300.738 112.204 299.948 112.204ZM348.374 64.2683C347.802 64.2683 347.27 64.3772 346.876 64.6087L283.566 101.159C283.416 101.241 283.157 101.432 283.157 101.663C283.157 101.868 283.348 102.181 283.865 102.48L297.892 110.433C298.94 111.032 300.574 111.114 301.446 110.61L364.756 74.0596C364.906 73.9779 365.164 73.7873 365.164 73.5558C365.164 73.3515 364.974 73.0383 364.456 72.7387L350.43 64.7858C349.844 64.4453 349.082 64.2683 348.374 64.2683Z" fill="white"/>
<path d="M273.706 97.0604C272.78 97.0604 271.8 96.8288 271.024 96.3795L251.4 85.0493C250.542 84.5591 250.066 83.8645 250.066 83.1292C250.066 82.4891 250.433 81.9172 251.101 81.5359L278.486 65.7254C279.753 64.99 281.864 65.0718 283.307 65.9025L302.931 77.2326C303.789 77.7228 304.265 78.4174 304.265 79.1527C304.265 79.7928 303.898 80.3647 303.23 80.746L275.844 96.5565C275.259 96.8969 274.496 97.0604 273.706 97.0604ZM280.611 66.488C280.039 66.488 279.508 66.597 279.113 66.8285L251.727 82.6389C251.577 82.7206 251.319 82.9113 251.319 83.1428C251.319 83.3471 251.509 83.6603 252.027 83.9599L271.65 95.29C272.699 95.8892 274.319 95.9709 275.204 95.4671L302.59 79.6566C302.74 79.5749 302.999 79.3842 302.999 79.1527C302.999 78.9485 302.808 78.6352 302.291 78.3357L282.667 67.0055C282.082 66.6651 281.319 66.5016 280.611 66.5016V66.488Z" fill="white"/>
<path d="M309.631 76.3202C308.705 76.3202 307.724 76.0887 306.948 75.6393L287.324 64.3092C286.466 63.8189 285.99 63.1244 285.99 62.3891C285.99 61.749 286.357 61.1771 287.025 60.7958L314.41 44.9853C315.677 44.2499 317.801 44.3316 319.231 45.1623L338.855 56.4925C339.713 56.9827 340.189 57.6772 340.189 58.399C340.189 59.039 339.822 59.611 339.154 59.9923L311.769 75.8028C311.183 76.1432 310.42 76.3066 309.631 76.3066V76.3202ZM316.535 45.7479C315.963 45.7479 315.432 45.8569 315.037 46.0884L287.651 61.8988C287.501 61.9805 287.243 62.1712 287.243 62.4027C287.243 62.607 287.433 62.9202 287.951 63.2198L307.574 74.5499C308.623 75.1491 310.243 75.2308 311.129 74.7269L338.514 58.9165C338.664 58.8348 338.923 58.6441 338.923 58.4126C338.923 58.2084 338.732 57.8951 338.215 57.5955L318.591 46.2654C318.006 45.9249 317.243 45.7615 316.535 45.7615V45.7479Z" fill="white"/>
<path d="M286.027 68.1113L254.75 86.1687L255.384 87.2655L286.66 69.2081L286.027 68.1113Z" fill="white"/>
<path d="M322.037 47.1323L290.76 65.1897L291.393 66.2865L322.67 48.2291L322.037 47.1323Z" fill="white"/>
<path d="M395.329 114.764C396.472 115.703 395.519 117.011 395.342 117.242C395.342 117.242 395.342 117.269 395.369 117.256C395.764 117.147 398.039 116.602 399.659 117.256C399.686 117.256 399.714 117.256 399.686 117.242C398.542 116.303 399.509 114.982 399.686 114.75C399.686 114.75 399.686 114.723 399.659 114.736C399.264 114.845 396.963 115.404 395.342 114.736C395.315 114.736 395.288 114.736 395.315 114.75L395.329 114.764Z" fill="#150035"/>
<path d="M401.539 111.182C402.682 112.122 401.729 113.429 401.552 113.661C401.552 113.661 401.552 113.688 401.579 113.674C401.974 113.565 404.249 113.021 405.869 113.674C405.896 113.674 405.924 113.674 405.896 113.661C404.752 112.721 405.719 111.4 405.896 111.169C405.896 111.169 405.896 111.141 405.869 111.155C405.474 111.264 403.173 111.822 401.552 111.155C401.525 111.155 401.498 111.155 401.525 111.169L401.539 111.182Z" fill="#150035"/>
<path d="M407.748 107.587C408.892 108.527 407.939 109.834 407.762 110.065C407.762 110.065 407.762 110.093 407.789 110.079C408.184 109.97 410.458 109.425 412.079 110.079C412.106 110.079 412.133 110.079 412.106 110.065C410.962 109.126 411.929 107.805 412.106 107.573C412.106 107.573 412.106 107.546 412.079 107.56C411.684 107.669 409.382 108.227 407.762 107.56C407.734 107.56 407.707 107.56 407.734 107.573L407.748 107.587Z" fill="#150035"/>
<path d="M413.972 104.005C415.116 104.945 414.162 106.252 413.985 106.484C413.985 106.484 413.985 106.511 414.013 106.497C414.407 106.389 416.682 105.844 418.302 106.497C418.329 106.497 418.357 106.497 418.329 106.484C417.186 105.544 418.152 104.223 418.329 103.992C418.329 103.992 418.329 103.965 418.302 103.978C417.907 104.087 415.606 104.645 413.985 103.978C413.958 103.978 413.931 103.978 413.958 103.992L413.972 104.005Z" fill="#150035"/>
<path d="M420.182 100.424C421.326 101.364 420.372 102.671 420.195 102.902C420.195 102.902 420.195 102.93 420.222 102.916C420.617 102.807 422.892 102.262 424.512 102.916C424.539 102.916 424.567 102.916 424.539 102.902C423.395 101.963 424.362 100.642 424.539 100.41C424.539 100.41 424.539 100.383 424.512 100.397C424.117 100.506 421.816 101.064 420.195 100.397C420.168 100.397 420.141 100.397 420.168 100.41L420.182 100.424Z" fill="#150035"/>
<path d="M395.301 107.573C396.445 108.513 395.492 109.82 395.315 110.052C395.315 110.052 395.315 110.079 395.342 110.065C395.737 109.956 398.011 109.412 399.632 110.065C399.659 110.065 399.686 110.065 399.659 110.052C398.515 109.112 399.482 107.791 399.659 107.56C399.659 107.56 399.659 107.532 399.632 107.546C399.237 107.655 396.935 108.213 395.315 107.546C395.288 107.546 395.26 107.546 395.288 107.56L395.301 107.573Z" fill="#150035"/>
<path d="M401.511 103.992C402.655 104.932 401.702 106.239 401.525 106.47C401.525 106.47 401.525 106.498 401.552 106.484C401.947 106.375 404.221 105.83 405.842 106.484C405.869 106.484 405.896 106.484 405.869 106.47C404.725 105.531 405.692 104.21 405.869 103.978C405.869 103.978 405.869 103.951 405.842 103.965C405.447 104.074 403.145 104.632 401.525 103.965C401.498 103.965 401.47 103.965 401.498 103.978L401.511 103.992Z" fill="#150035"/>
<path d="M407.734 100.397C408.878 101.336 407.925 102.644 407.748 102.875C407.748 102.875 407.748 102.902 407.775 102.889C408.17 102.78 410.444 102.235 412.065 102.889C412.092 102.889 412.119 102.889 412.092 102.875C410.948 101.935 411.915 100.615 412.092 100.383C412.092 100.383 412.092 100.356 412.065 100.369C411.67 100.478 409.369 101.037 407.748 100.369C407.721 100.369 407.694 100.369 407.721 100.383L407.734 100.397Z" fill="#150035"/>
<path d="M413.944 96.8151C415.088 97.7547 414.135 99.0621 413.958 99.2936C413.958 99.2936 413.958 99.3208 413.985 99.3072C414.38 99.1982 416.654 98.6535 418.275 99.3072C418.302 99.3072 418.329 99.3072 418.302 99.2936C417.158 98.3539 418.125 97.033 418.302 96.8015C418.302 96.8015 418.302 96.7743 418.275 96.7879C417.88 96.8968 415.578 97.4552 413.958 96.7879C413.931 96.7879 413.903 96.7879 413.931 96.8015L413.944 96.8151Z" fill="#150035"/>
<path d="M344.316 111.277C344.533 111.155 344.738 111.059 344.942 110.978L345.514 111.427C345.269 111.523 345.078 111.604 344.928 111.686C344.547 111.904 344.37 112.19 344.411 112.53C344.452 112.871 344.697 113.17 345.173 113.443L347.734 114.913L347.012 115.336L342.246 112.585L342.845 112.244L343.812 112.707H343.853C343.716 112.408 343.689 112.149 343.771 111.904C343.853 111.659 344.043 111.454 344.343 111.277H344.316Z" fill="#45D3C9"/>
<path d="M352.718 112.122C352.01 112.53 351.247 112.721 350.403 112.707C349.572 112.707 348.769 112.462 348.006 112.026C347.243 111.577 346.821 111.128 346.739 110.637C346.671 110.161 346.944 109.739 347.584 109.371C348.183 109.03 348.85 108.867 349.586 108.894C350.321 108.922 351.015 109.112 351.656 109.493L352.105 109.752L348.823 111.645C349.395 111.958 349.967 112.122 350.525 112.135C351.084 112.135 351.601 112.013 352.091 111.727C352.609 111.427 353.004 111.073 353.29 110.665L353.93 111.032C353.78 111.237 353.617 111.427 353.439 111.591C353.262 111.754 353.004 111.917 352.69 112.108L352.718 112.122ZM348.183 109.739C347.802 109.956 347.625 110.202 347.638 110.488C347.665 110.76 347.87 111.032 348.265 111.318L350.757 109.875C350.307 109.616 349.858 109.466 349.409 109.453C348.959 109.425 348.551 109.521 348.183 109.739Z" fill="#45D3C9"/>
<path d="M357.607 109.303C356.912 109.698 356.177 109.888 355.373 109.861C354.57 109.834 353.78 109.602 353.004 109.153C352.2 108.69 351.778 108.227 351.737 107.75C351.683 107.274 352.01 106.838 352.731 106.429C352.963 106.293 353.208 106.184 353.494 106.075C353.766 105.966 354.011 105.898 354.202 105.871L354.597 106.348C354.379 106.402 354.148 106.47 353.916 106.552C353.685 106.634 353.494 106.715 353.358 106.811C352.391 107.369 352.527 108.009 353.753 108.717C354.338 109.058 354.91 109.248 355.455 109.289C356 109.33 356.504 109.221 356.98 108.949C357.375 108.717 357.702 108.431 357.947 108.091L358.587 108.458C358.437 108.744 358.11 109.017 357.634 109.303H357.607Z" fill="#45D3C9"/>
<path d="M361.951 106.797C361.243 107.206 360.48 107.396 359.636 107.383C358.805 107.383 358.002 107.137 357.239 106.702C356.476 106.252 356.054 105.803 355.973 105.313C355.904 104.836 356.177 104.414 356.817 104.046C357.416 103.706 358.083 103.542 358.819 103.57C359.554 103.597 360.249 103.787 360.889 104.169L361.352 104.428L358.07 106.32C358.642 106.634 359.214 106.797 359.772 106.811C360.33 106.811 360.848 106.688 361.338 106.402C361.856 106.103 362.25 105.748 362.536 105.34L363.177 105.708C363.027 105.912 362.863 106.103 362.686 106.266C362.509 106.429 362.25 106.593 361.937 106.783L361.951 106.797ZM357.416 104.414C357.035 104.632 356.858 104.877 356.871 105.163C356.899 105.435 357.103 105.721 357.498 105.994L359.99 104.55C359.541 104.291 359.091 104.142 358.642 104.128C358.192 104.101 357.784 104.196 357.416 104.414Z" fill="#45D3C9"/>
<path d="M358.737 101.568C358.573 101.472 358.492 101.377 358.492 101.282C358.492 101.186 358.56 101.105 358.682 101.037C358.805 100.969 358.941 100.941 359.104 100.928C359.268 100.928 359.431 100.969 359.595 101.064C359.758 101.159 359.84 101.255 359.826 101.35C359.813 101.445 359.758 101.527 359.649 101.595C359.527 101.663 359.39 101.704 359.227 101.704C359.064 101.704 358.9 101.663 358.737 101.568ZM365.573 104.605L364.851 105.027L360.085 102.276L360.807 101.854L365.573 104.605Z" fill="#45D3C9"/>
<path d="M368.133 103.12L361.569 101.418L362.346 100.969L366.199 102.004C367.098 102.249 367.657 102.426 367.888 102.507H367.929C367.806 102.385 367.588 102.14 367.275 101.758C366.962 101.377 366.295 100.56 365.26 99.28L366.036 98.8306L368.991 102.63L368.147 103.12H368.133Z" fill="#45D3C9"/>
<path d="M373.649 100.043C372.941 100.451 372.178 100.642 371.334 100.628C370.503 100.628 369.699 100.383 368.937 99.9473C368.174 99.4979 367.752 99.0485 367.67 98.5583C367.602 98.0816 367.875 97.6595 368.515 97.2918C369.114 96.9514 369.781 96.7879 370.516 96.8152C371.252 96.8424 371.946 97.0331 372.586 97.4144L373.049 97.6731L369.768 99.566C370.339 99.8792 370.911 100.043 371.47 100.056C372.028 100.056 372.546 99.9337 373.036 99.6477C373.553 99.3481 373.948 98.9941 374.234 98.5855L374.874 98.9532C374.724 99.1575 374.561 99.3481 374.384 99.5115C374.207 99.675 373.948 99.8384 373.635 100.029L373.649 100.043ZM369.114 97.6595C368.733 97.8774 368.556 98.1225 368.569 98.4085C368.596 98.6808 368.801 98.9668 369.196 99.2392L371.688 97.7957C371.238 97.5369 370.789 97.3871 370.339 97.3735C369.89 97.3463 369.482 97.4552 369.114 97.6595Z" fill="#45D3C9"/>
<path d="M235.045 56.9826L232.566 58.4124L231.164 57.609L233.642 56.1791L231.15 54.7356L232.553 53.9321L235.045 55.3756L237.523 53.9457L238.926 54.7492L236.448 56.1791L238.912 57.5954L237.51 58.3988L235.045 56.9826Z" fill="white"/>
<path d="M248.826 53.5509L246.852 54.6948L241.432 51.5627L240.56 51.0316L239.62 50.446C239.62 50.8273 239.62 51.086 239.58 51.2086L239.362 52.3253L237.224 52.1891L237.836 49.0569L239.457 48.1173L248.813 53.5236L248.826 53.5509Z" fill="white"/>
<path d="M253.225 45.6116C254.859 46.5512 255.799 47.4092 256.044 48.1718C256.289 48.9344 255.867 49.6425 254.75 50.2825C253.674 50.909 252.449 51.1405 251.087 50.9907C249.725 50.8409 248.254 50.3098 246.675 49.3974C245.027 48.4441 244.073 47.5862 243.828 46.8236C243.583 46.061 244.005 45.3665 245.122 44.7264C246.198 44.1 247.424 43.8685 248.799 44.0183C250.174 44.1681 251.645 44.6992 253.225 45.6116ZM248.649 48.2535C249.793 48.9207 250.719 49.3293 251.414 49.5063C252.108 49.6834 252.694 49.6289 253.157 49.3565C253.62 49.0842 253.701 48.7573 253.402 48.3488C253.102 47.9402 252.38 47.4091 251.25 46.7555C250.106 46.0882 249.18 45.6797 248.472 45.5026C247.764 45.3392 247.178 45.3801 246.729 45.6388C246.266 45.9112 246.184 46.238 246.484 46.6465C246.783 47.0551 247.505 47.5862 248.663 48.2535H248.649Z" fill="white"/>
<path d="M260.701 41.2948C262.335 42.2344 263.275 43.0924 263.52 43.855C263.765 44.6176 263.343 45.3257 262.226 45.9658C261.15 46.5922 259.925 46.8237 258.563 46.6739C257.201 46.5241 255.731 45.993 254.151 45.0806C252.503 44.1273 251.55 43.2694 251.305 42.5068C251.06 41.7442 251.482 41.0497 252.598 40.4096C253.674 39.7832 254.9 39.5517 256.275 39.7015C257.651 39.8513 259.121 40.3824 260.701 41.2948ZM256.125 43.9367C257.269 44.604 258.195 45.0125 258.89 45.1895C259.584 45.3666 260.17 45.3121 260.633 45.0398C261.096 44.7674 261.178 44.4406 260.878 44.032C260.579 43.6235 259.857 43.0924 258.726 42.4387C257.583 41.7714 256.657 41.3629 255.948 41.1859C255.24 41.0224 254.655 41.0633 254.205 41.322C253.742 41.5944 253.661 41.9212 253.96 42.3298C254.26 42.7383 254.982 43.2694 256.139 43.9367H256.125Z" fill="white"/>
<path d="M273.325 36.0382C274.006 36.4332 274.306 36.8825 274.224 37.4136C274.142 37.9447 273.706 38.4758 272.903 39.0342L274.21 39.7968L273.339 40.3007L272.059 39.5517C270.996 40.1372 269.893 40.5594 268.763 40.8181L267.074 39.8376C267.633 39.7287 268.232 39.5653 268.899 39.3474C269.566 39.1295 270.111 38.9116 270.547 38.6801L268.559 37.5362L267.96 37.686C266.788 37.9856 265.822 38.1218 265.086 38.0945C264.337 38.0673 263.684 37.8903 263.112 37.5634C262.499 37.2094 262.226 36.7736 262.308 36.2697C262.39 35.7659 262.826 35.2348 263.602 34.6764L262.621 34.1045L263.493 33.6006L264.446 34.1453C265.467 33.6006 266.543 33.2057 267.687 32.9606L268.586 34.1726C267.646 34.4041 266.802 34.7037 266.039 35.0714L267.932 36.1608C269.09 35.8612 269.948 35.6842 270.547 35.6161C271.133 35.548 271.65 35.548 272.099 35.6161C272.549 35.6842 272.957 35.8203 273.325 36.0382ZM265.032 36.4468C265.222 36.5557 265.44 36.6102 265.685 36.5966C265.93 36.5966 266.271 36.5421 266.693 36.4468L265.195 35.5752C264.732 35.9429 264.678 36.2289 265.032 36.4332V36.4468ZM271.487 37.2094C271.31 37.1004 271.078 37.0596 270.819 37.0732C270.547 37.0732 270.207 37.1413 269.784 37.223L271.378 38.149C271.854 37.7541 271.895 37.4409 271.487 37.2094Z" fill="white"/>
</svg>
