<svg width="775" height="832" viewBox="0 0 775 832" fill="none" xmlns="http://www.w3.org/2000/svg">
<path fill-rule="evenodd" clip-rule="evenodd" d="M666.725 832C663.152 829.667 658.15 824.1 666.725 820.5C677.444 816 687.627 776.5 680.66 768.5C677.425 764.785 666.91 766.245 655.178 767.874C641.644 769.753 626.49 771.857 619.025 766.5C605.091 756.5 590.084 742 604.019 727.5C608.405 722.936 629.515 719.611 655.235 715.559C711.231 706.738 789.074 694.476 763.733 658.5C742.65 628.569 693.695 625.616 657.288 623.419C629.836 621.763 609.519 620.537 613.666 608.5C617.768 596.592 637.574 587.036 658.324 577.023C686.368 563.492 716.138 549.127 711.209 527C707.513 510.405 702.821 511.46 696.919 512.788C689.128 514.54 679.228 516.767 666.725 479.5C655.663 446.525 681.548 442.823 703.486 439.686C725.124 436.591 742.923 434.046 717.641 404.5C689.054 371.094 668.915 374.254 655.421 376.371C644.881 378.024 638.395 379.042 635.104 361.5C631.545 342.527 649.569 335.366 666.872 328.491C686.049 320.872 704.339 313.604 691.379 291C680.16 271.432 705.013 260.354 730.481 249.003C760.977 235.411 792.354 221.426 763.733 192C735.527 163.001 703.457 170.627 678.23 176.626C656.481 181.798 639.819 185.76 635.104 164C629.904 140.001 661.455 130.864 687.66 123.275C712.775 116.001 732.979 110.15 711.209 94C691.836 79.6282 657.012 70.9465 630.598 64.3616L630.597 64.3614C596.361 55.8263 576.255 50.814 622.241 41.5C687.413 28.3 657.971 7.66668 635.104 -1.00001L548.816 -1.00002L548.816 -1.97737e-05L0.000194806 -6.77526e-05L0.00012207 832L548.816 832L666.725 832ZM686.019 673C686.019 665.268 692.738 659 701.026 659C709.314 659 716.033 665.268 716.033 673C716.033 680.732 709.314 687 701.026 687C692.738 687 686.019 680.732 686.019 673ZM759.981 144C751.693 144 744.975 150.268 744.975 158C744.974 165.732 751.693 172 759.981 172C768.269 172 774.988 165.732 774.988 158C774.988 150.268 768.269 144 759.981 144Z" fill="#242424"/>
</svg>
